<svg xmlns="http://www.w3.org/2000/svg" width="768" height="96" viewBox="0 0 768 96" shape-rendering="crispEdges">
  <defs>
    <g id="hill">
      <!-- Explicit pixel rows keep both stepped edges complete. -->
      <rect x="64" y="24" width="16" height="8" fill="#000"/>
      <rect x="56" y="32" width="32" height="8" fill="#000"/>
      <rect x="64" y="32" width="16" height="8" fill="#00a800"/>
      <rect x="48" y="40" width="48" height="8" fill="#000"/>
      <rect x="56" y="40" width="32" height="8" fill="#00a800"/>
      <rect x="40" y="48" width="64" height="8" fill="#000"/>
      <rect x="48" y="48" width="48" height="8" fill="#00a800"/>
      <rect x="32" y="56" width="80" height="8" fill="#000"/>
      <rect x="40" y="56" width="64" height="8" fill="#00a800"/>
      <rect x="24" y="64" width="96" height="8" fill="#000"/>
      <rect x="32" y="64" width="80" height="8" fill="#00a800"/>
      <rect x="16" y="72" width="112" height="8" fill="#000"/>
      <rect x="24" y="72" width="96" height="8" fill="#00a800"/>
      <rect x="8" y="80" width="128" height="8" fill="#000"/>
      <rect x="16" y="80" width="112" height="8" fill="#00a800"/>
      <rect x="0" y="88" width="144" height="8" fill="#000"/>
      <rect x="8" y="88" width="128" height="8" fill="#00a800"/>
      <path fill="#000" d="M56 57h4v12h-4zM76 73h4v12h-4zM92 58h4v8h-4z"/>
    </g>
    <g id="bush">
      <path fill="#000" d="M0 24V12H6V6H12V0H24V6H30V12H36V6H42V0H54V6H60V12H66V6H78V12H84V24Z"/>
      <path fill="#80d010" d="M3 24V13H9V7H15V3H21V9H27V15H39V9H45V3H51V9H57V15H69V9H75V15H81V24Z"/>
    </g>
    <g id="pipe">
      <path fill="#000" d="M0 0H48V18H44V72H4V18H0Z"/>
      <path fill="#00a800" d="M2 2H46V16H2ZM6 18H42V72H6Z"/>
      <path fill="#b8f818" d="M4 2H10V16H4ZM8 18H14V72H8ZM14 2H18V16H14ZM18 18H20V72H18Z"/>
      <path fill="#005800" d="M34 2H36V16H34ZM40 2H44V16H40ZM32 18H34V72H32ZM38 18H42V72H38Z"/>
    </g>
  </defs>
  <use href="#hill" x="16"/>
  <use href="#hill" transform="translate(390 48) scale(.5)"/>
  <use href="#bush" x="170" y="72"/>
  <use href="#bush" x="492" y="72"/>
  <use href="#pipe" x="650" y="24"/>
</svg>
